HIERARCHY
ROOT Pelvis
{
	OFFSET 0.000000 0.000000 0.000000
	CHANNELS 6 Xposition Yposition Zposition Xrotation Yrotation Zrotation
	JOINT LeftUpLeg_virtual
	{
		OFFSET 0.000000 0.000000 0.000000
		CHANNELS 3 Xrotation Yrotation Zrotation
		JOINT LeftUpLeg
		{
			OFFSET 18.735201 -5.666702 -4.541200
			CHANNELS 3 Xrotation Yrotation Zrotation
			JOINT LeftLeg
			{
				OFFSET -0.021200 -31.938179 0.493100
				CHANNELS 3 Xrotation Yrotation Zrotation
				JOINT LeftFoot
				{
					OFFSET 0.021200 -31.938179 -4.336299
					CHANNELS 3 Xrotation Yrotation Zrotation
					JOINT LeftToeBase
					{
						OFFSET 0.943001 -26.722000 15.023500
						CHANNELS 3 Xrotation Yrotation Zrotation
						End Site
						{
							OFFSET 0 0 0
						}
					}
				}
			}
		}
	}
	JOINT RightUpLeg_virtual
	{
		OFFSET 0.000000 0.000000 0.000000
		CHANNELS 3 Xrotation Yrotation Zrotation
		JOINT RightUpLeg
		{
			OFFSET -18.735201 -5.666702 -4.541200
			CHANNELS 3 Xrotation Yrotation Zrotation
			JOINT RightLeg
			{
				OFFSET 0.018946 -31.938133 0.493100
				CHANNELS 3 Xrotation Yrotation Zrotation
				JOINT RightFoot
				{
					OFFSET -0.018946 -31.938126 -4.336299
					CHANNELS 3 Xrotation Yrotation Zrotation
					JOINT RightToeBase
					{
						OFFSET -0.943001 -26.722004 15.023500
						CHANNELS 3 Xrotation Yrotation Zrotation
						End Site
						{
							OFFSET 0 0 0
						}
					}
				}
			}
		}
	}
	JOINT Hips_virtual
	{
		OFFSET 0.000000 0.000000 0.000000
		CHANNELS 3 Xrotation Yrotation Zrotation
		JOINT Hips
		{
			OFFSET -0.000000 -0.000000 -0.000000
			CHANNELS 3 Xrotation Yrotation Zrotation
			JOINT Spine
			{
				OFFSET 0.000000 10.199997 -0.299500
				CHANNELS 3 Xrotation Yrotation Zrotation
				JOINT Spine1
				{
					OFFSET 0.000000 11.900002 -1.516600
					CHANNELS 3 Xrotation Yrotation Zrotation
					JOINT Spine2
					{
						OFFSET 0.000000 13.600006 -2.842500
						CHANNELS 3 Xrotation Yrotation Zrotation
						JOINT Neck_virtual
						{
							OFFSET 0.000000 0.000000 0.000000
							CHANNELS 3 Xrotation Yrotation Zrotation
							JOINT Neck
							{
								OFFSET 0.000000 9.624100 -2.890100
								CHANNELS 3 Xrotation Yrotation Zrotation
								JOINT Head
								{
									OFFSET 0.000000 14.068802 -1.351900
									CHANNELS 3 Xrotation Yrotation Zrotation
									End Site
									{
										OFFSET 0 0 0
									}
								}
							}
						}
						JOINT LeftShoulder_virtual
						{
							OFFSET 0.000000 0.000000 0.000000
							CHANNELS 3 Xrotation Yrotation Zrotation
							JOINT LeftShoulder
							{
								OFFSET 15.263000 10.923401 -0.547700
								CHANNELS 3 Xrotation Yrotation Zrotation
								JOINT LeftArm
								{
									OFFSET 25.438599 -2.830597 -13.032500
									CHANNELS 3 Xrotation Yrotation Zrotation
									JOINT LeftForeArm
									{
										OFFSET 29.960503 0.000000 0.000000
										CHANNELS 3 Xrotation Yrotation Zrotation
										JOINT LeftHand
										{
											OFFSET 27.849251 0.000000 0.000000
											CHANNELS 3 Xrotation Yrotation Zrotation
											End Site
											{
												OFFSET 0 0 0
											}
										}
									}
								}
							}
						}
						JOINT RightShoulder_virtual
						{
							OFFSET 0.000000 0.000000 0.000000
							CHANNELS 3 Xrotation Yrotation Zrotation
							JOINT RightShoulder
							{
								OFFSET -15.263000 10.923401 -0.547700
								CHANNELS 3 Xrotation Yrotation Zrotation
								JOINT RightArm
								{
									OFFSET -25.438599 -2.830597 -13.032500
									CHANNELS 3 Xrotation Yrotation Zrotation
									JOINT RightForeArm
									{
										OFFSET -29.960503 0.000000 0.000000
										CHANNELS 3 Xrotation Yrotation Zrotation
										JOINT RightHand
										{
											OFFSET -27.849251 0.000000 0.000000
											CHANNELS 3 Xrotation Yrotation Zrotation
											End Site
											{
												OFFSET 0 0 0
											}
										}
									}
								}
							}
						}
					}
				}
			}
		}
	}
}
MOTION
Frames: 9
Frame Time: 0.03333333
1.024527 93.691513 4.418386 0.000000 0.000000 0.000000 -0.895230 1.554004 -4.421725 -22.233562 9.554636 17.698468 30.446750 8.683759 2.524813 -6.085521 4.295718 -11.970426 0.000000 0.000000 0.000000 -0.895230 1.554004 -4.421725 3.799661 -3.818626 11.702050 3.915433 -5.401533 3.200462 -7.048633 1.142508 -9.593924 0.000000 0.000000 0.000000 -0.895230 1.554004 -4.421725 0.000000 0.000000 0.000000 1.278337 -1.194812 2.078961 0.728744 0.264195 5.944687 0.000000 0.000000 0.000000 0.710789 0.781493 5.851997 0.416724 -0.141643 -0.865270 0.000000 0.000000 0.000000 0.710789 0.781493 5.851997 3.582360 -13.764045 -5.044453 4.032788 3.514255 -83.678321 -0.000001 -14.506748 0.000019 0.000000 0.000000 0.000000 0.710789 0.781493 5.851997 4.508128 3.324373 5.471577 -1.219628 0.655870 67.345406 -0.000003 17.736787 0.000007 0.000000 0.000000 0.000000 
0.902173 93.680374 4.403360 0.000000 0.000000 0.000000 -0.844764 1.605263 -4.520403 -22.393755 9.412066 17.892553 30.518562 8.762507 2.552460 -6.024474 4.192083 -12.105838 0.000000 0.000000 0.000000 -0.844764 1.605263 -4.520403 4.051550 -3.633913 11.924953 3.244704 -5.529559 3.235498 -6.712116 1.099935 -9.757291 0.000000 0.000000 0.000000 -0.844764 1.605263 -4.520403 0.000000 0.000000 0.000000 1.242016 -1.194490 2.094907 0.804995 0.271352 5.942364 0.000000 0.000000 0.000000 0.791298 0.784184 5.830779 0.393734 -0.149949 -0.815626 0.000000 0.000000 0.000000 0.791298 0.784184 5.830779 3.578790 -13.707246 -5.015857 3.780837 3.390085 -83.456026 0.000001 -14.511150 -0.000024 0.000000 0.000000 0.000000 0.791298 0.784184 5.830779 4.481676 3.349432 5.590988 -1.177694 1.237856 67.216247 -0.000001 17.736825 0.000016 0.000000 0.000000 0.000000 
0.781473 93.666321 4.390459 0.000000 0.000000 0.000000 -0.795208 1.659050 -4.621526 -22.561129 9.265549 18.086800 30.608755 8.830743 2.583683 -5.973616 4.098376 -12.242200 0.000000 0.000000 0.000000 -0.795208 1.659050 -4.621526 4.285435 -3.450956 12.147684 2.612623 -5.659180 3.267109 -6.391215 1.057390 -9.913519 0.000000 0.000000 0.000000 -0.795208 1.659050 -4.621526 0.000000 0.000000 0.000000 1.205487 -1.203141 2.109649 0.883787 0.274246 5.935622 0.000000 0.000000 0.000000 0.874439 0.782059 5.804659 0.367658 -0.157367 -0.764625 0.000000 0.000000 0.000000 0.874439 0.782059 5.804659 3.574453 -13.651338 -4.988284 3.522163 3.255680 -83.224626 0.000004 -14.517248 0.000010 0.000000 0.000000 0.000000 0.874439 0.782059 5.804659 4.449801 3.381855 5.730766 -1.131083 1.840466 67.077075 0.000007 17.687975 -0.000010 0.000000 0.000000 0.000000 
0.666057 93.644417 4.383406 0.000000 0.000000 0.000000 -0.747894 1.719693 -4.727606 -22.748117 9.109802 18.280322 30.749006 8.871180 2.623733 -5.951228 4.031086 -12.380732 0.000000 0.000000 0.000000 -0.747894 1.719693 -4.727606 4.463897 -3.275530 12.366479 2.099340 -5.793773 3.293772 -6.119839 1.016553 -10.051322 0.000000 0.000000 0.000000 -0.747894 1.719693 -4.727606 0.000000 0.000000 0.000001 1.168984 -1.220171 2.122694 0.965308 0.273020 5.924296 0.000000 0.000000 0.000000 0.960402 0.775222 5.773462 0.338399 -0.163919 -0.712054 0.000000 0.000000 0.000000 0.960402 0.775222 5.773462 3.569242 -13.596746 -4.962268 3.256770 3.110455 -82.983137 0.000003 -14.524935 -0.000013 0.000000 0.000000 0.000000 0.960402 0.775222 5.773462 4.412044 3.421892 5.891971 -1.079194 2.463873 66.927152 -0.000001 17.587221 0.000010 0.000000 0.000000 0.000000 
0.551431 93.617126 4.379538 0.000000 0.000000 0.000000 -0.702489 1.784196 -4.839869 -22.949559 8.945273 18.478008 30.923839 8.893511 2.671111 -5.946463 3.981376 -12.524259 0.000000 0.000000 0.000000 -0.702489 1.784196 -4.839869 4.610666 -3.103931 12.587566 1.653382 -5.929928 3.318102 -5.874045 0.976030 -10.180096 0.000000 0.000000 0.000000 -0.702489 1.784196 -4.839869 0.000000 0.000000 0.000000 1.132760 -1.246838 2.134524 1.050319 0.266991 5.907281 0.000000 0.000000 0.000000 1.049970 0.762833 5.735963 0.305620 -0.169578 -0.657897 0.000000 0.000000 0.000000 1.049970 0.762833 5.735963 3.562880 -13.544197 -4.938704 2.983157 2.951939 -82.727873 0.000002 -14.534477 0.000006 0.000000 0.000000 0.000000 1.049970 0.762833 5.735963 4.366722 3.471357 6.080087 -1.020837 3.112629 66.763098 0.000003 17.420848 -0.000018 0.000000 0.000000 0.000000 
0.434441 93.584984 4.377298 0.000000 0.000000 0.000000 -0.658949 1.852081 -4.960101 -23.165777 8.769960 18.683651 31.129714 8.899999 2.726649 -5.954748 3.947325 -12.675749 0.000000 0.000000 0.000000 -0.658949 1.852081 -4.960101 4.731990 -2.935290 12.815702 1.259932 -6.066673 3.341322 -5.646285 0.935368 -10.304232 0.000000 0.000000 0.000000 -0.658949 1.852081 -4.960101 0.000000 0.000000 0.000000 1.097178 -1.282891 2.145442 1.139288 0.256126 5.883983 0.000000 0.000000 0.000000 1.143613 0.744759 5.691527 0.269139 -0.174399 -0.602014 0.000000 0.000000 0.000000 1.143613 0.744759 5.691527 3.555135 -13.494543 -4.918650 2.700904 2.778631 -82.456414 -0.000003 -14.545820 -0.000037 0.000000 0.000000 0.000000 1.143613 0.744759 5.691527 4.312632 3.531180 6.298296 -0.954851 3.788334 66.582637 0.000001 17.180403 0.000001 0.000000 0.000000 0.000000 
0.314826 93.547516 4.376860 0.000000 0.000000 0.000000 -0.617758 1.919953 -5.087589 -23.395128 8.585541 18.898474 31.367616 8.896000 2.788809 -5.977729 3.924891 -12.836122 0.000000 0.000000 0.000000 -0.617758 1.919953 -5.087589 4.825806 -2.770921 13.049575 0.923943 -6.199963 3.364739 -5.438639 0.894413 -10.424694 0.000000 0.000000 0.000000 -0.617758 1.919953 -5.087589 0.000000 0.000000 0.000000 1.062634 -1.326521 2.155097 1.232320 0.241031 5.854369 0.000000 0.000000 0.000000 1.241433 0.721576 5.640134 0.229217 -0.178559 -0.544437 0.000000 0.000000 0.000000 1.241433 0.721576 5.640134 3.545848 -13.448695 -4.903269 2.410666 2.590262 -82.167818 0.000002 -14.558664 -0.000008 0.000000 0.000000 0.000000 1.241433 0.721576 5.640134 4.249134 3.601339 6.547292 -0.880252 4.489445 66.384589 0.000001 16.863168 -0.000014 0.000000 0.000000 0.000000 
0.190712 93.504799 4.377825 0.000000 0.000000 0.000000 -0.579207 1.985547 -5.223165 -23.636732 8.391722 19.125675 31.636548 8.886309 2.857091 -6.014292 3.910257 -13.007739 0.000000 0.000000 0.000000 -0.579207 1.985547 -5.223165 4.896458 -2.610846 13.291493 0.636488 -6.326420 3.389668 -5.246298 0.852411 -10.544443 0.000000 0.000000 0.000000 -0.579207 1.985547 -5.223165 0.000000 0.000000 0.000000 1.029488 -1.374968 2.163898 1.329186 0.222788 5.818846 0.000000 0.000000 0.000000 1.343181 0.694388 5.582279 0.186416 -0.182502 -0.485901 0.000000 0.000000 0.000000 1.343181 0.694388 5.582279 3.534929 -13.407611 -4.893784 2.113965 2.387620 -81.862720 0.000001 -14.572567 -0.000017 0.000000 0.000000 0.000000 1.343181 0.694388 5.582279 4.176070 3.681074 6.825665 -0.796251 5.211822 66.168783 0.000000 16.471464 0.000008 0.000000 0.000000 0.000000 
0.063642 93.457817 4.380709 0.000000 0.000000 0.000000 -0.543809 2.045248 -5.366139 -23.885330 8.192620 19.365147 31.931220 8.874712 2.929005 -6.064284 3.900272 -13.188743 0.000000 0.000000 0.000000 -0.543809 2.045248 -5.366139 4.946634 -2.454641 13.539181 0.393013 -6.443143 3.416260 -5.066946 0.809509 -10.662426 0.000000 0.000000 0.000000 -0.543809 2.045248 -5.366139 0.000000 0.000000 0.000000 0.997963 -1.425094 2.172931 1.429398 0.202694 5.778113 0.000000 0.000000 0.000000 1.448346 0.664556 5.518764 0.141101 -0.186482 -0.426542 0.000000 0.000000 0.000000 1.448346 0.664556 5.518764 3.522327 -13.372173 -4.891375 1.812806 2.172309 -81.542814 0.000005 -14.586979 0.000002 0.000000 0.000000 0.000000 1.448346 0.664556 5.518764 4.093630 3.769173 7.130596 -0.702276 5.949834 65.935422 -0.000003 16.011024 0.000013 0.000000 0.000000 0.000000 
